<?xml version="1.0" encoding="utf-8"?>
<!-- Generator: Adobe Illustrator 21.1.0, SVG Export Plug-In . SVG Version: 6.00 Build 0)  -->
<svg version="1.0" id="Layer_1" xmlns="http://www.w3.org/2000/svg" xmlns:xlink="http://www.w3.org/1999/xlink" x="0px" y="0px"
	 width="144.6px" height="77.3px" viewBox="0 0 144.6 77.3" enable-background="new 0 0 144.6 77.3" xml:space="preserve">
<title>Asset 1</title>
<g id="Layer_2">
	<g id="Layer_1-2">
		<g>
			<defs>
				<rect id="SVGID_1_" x="-0.3" y="-0.3" width="145.1" height="77.8"/>
			</defs>
			<clipPath id="SVGID_2_">
				<use xlink:href="#SVGID_1_"  overflow="visible"/>
			</clipPath>
			<g clip-path="url(#SVGID_2_)">
				<path fill="#002E6D" d="M7.4,68.2H3.5l-0.8,1.4H1.2l4.3-8.5l4.3,8.5H8.1L7.4,68.2z M4.2,66.8h2.5l-1.3-2.5L4.2,66.8z"/>
				<path fill="#002E6D" d="M41.5,69.7l-1.6-2.8h-2.4v2.8h-1.4v-8.5h4.3c1.6,0,2.8,1.3,2.8,2.9c0,1.1-0.7,2.1-1.7,2.6l1.8,3.1H41.5z
					 M40.3,62.6h-2.8v2.8h2.8c0.4,0,0.7-0.1,1-0.4c0.3-0.3,0.4-0.6,0.4-1C41.7,63.2,41.1,62.6,40.3,62.6"/>
				<polygon fill="#002E6D" points="101.5,61.2 107.2,66.2 107.2,61.2 108.6,61.2 108.6,69.7 108.6,69.6 108.6,69.7 102.9,64.6 
					102.9,69.7 101.5,69.7 				"/>
				<path fill="#002E6D" d="M141.1,68.2h-3.9l-0.7,1.4h-1.6l4.3-8.5l4.3,8.5h-1.6L141.1,68.2z M137.9,66.8h2.5l-1.3-2.5L137.9,66.8z
					"/>
				<path fill="#002E6D" d="M0,0h10.5v20.7c0,1.4,0,2.9,1.2,4c0.9,0.8,2.1,1.3,3.3,1.2c1.2,0.1,2.4-0.4,3.3-1.1c1-1.1,1.4-2.5,1.3-4
					V0h10.5v17.6c0,3.8,0,8.7-3.9,12.4C23.9,32.3,20.1,34,15,34c-4.9,0-9.1-1.6-11.5-4C0.2,26.9,0.1,23.2,0,19.7V0z"/>
				<path fill="#002E6D" d="M41.8,12.1c0.8-1.1,2.6-3.8,8-3.8c3.8,0,5.8,1.5,6.5,2.2c2.3,2.3,2.5,5.5,2.5,7.3v15.4H49V19.8
					c0-1.2,0-3.6-3.3-3.6c-3.4,0-3.5,2.7-3.5,4v12.9h-9.7V8.8h9.2V12.1z"/>
				<path fill="#002E6D" d="M103.1,27.2c-1.1,0-2.1-0.4-2.9-1.1c-0.8-0.9-1.3-2.2-1.2-3.4h17c-0.1-3.7-0.2-7.7-3.7-11.3
					c-2.7-2.4-6.1-3.7-9.7-3.6c-7.9,0-13.4,5.1-13.4,13c0,6.8,4.4,13.2,13.4,13.2c5.8,0,10-2.3,12.9-6.7l-8-3.3
					C106.5,26.1,105.3,27.2,103.1,27.2 M98.7,17.5c0.3-1.1,0.9-4,4.2-4c1.7,0,3.3,1.2,3.7,2.9c0.1,0.3,0.1,0.5,0.1,0.8
					c0,0.1,0,0.2,0,0.3l0.1,0.5h-8.2L98.7,17.5z"/>
				<path fill="#002E6D" d="M134.4,0h9.7v33.1h-9.4v-1.8c-0.6,0.8-1.5,1.4-2.5,1.8c-1.2,0.4-2.4,0.6-3.7,0.6
					c-6.9,0-10.9-5.7-10.9-13.3c0-8.5,5.3-12.3,10.6-12.3c2.3-0.1,4.6,0.7,6.2,2.4L134.4,0z M130.9,26.8c0.9,0,1.8-0.4,2.4-1.1
					c1.3-1.3,1.3-3.6,1.3-4.8c0.1-1-0.1-2.1-0.4-3c-0.4-1.6-1.7-2.7-3.4-2.8c-0.3,0-2.6,0-3.5,3c-0.2,0.9-0.3,1.9-0.3,2.9
					c0,2.8,0.7,4.1,1.4,4.8C129.1,26.3,130,26.7,130.9,26.8"/>
				<rect x="61.1" fill="#002E6D" width="9.7" height="6.4"/>
				<path fill="#002E6D" d="M87,26.5c-2.6,0-2.6-1.6-2.6-2.5l0.1-9.4h4.2V8.8h-4.2V1.8h-9.8v7.1H61.1v24.3h9.6v-7.4l-4.7,2.5
					l2.3-6.2l-5.2-5h6.6l3-7l1.9,4.6h0.1v0.2l1,2.3h6.6l-5.2,5l2.3,6.2l-4.8-2.6v0.8c-0.2,1.8,0.4,3.6,1.6,5c1.9,2,5.3,2,6.4,2
					c2,0,4.1-0.2,6.1-0.5v-6.6C88.1,26.4,87.6,26.5,87,26.5"/>
				<path fill="#B3282D" d="M5.4,43.3c-0.3,0-0.6-0.1-0.9-0.1c-0.9,0-1.5,0.3-1.5,1.2c0,1.3,2.1,1.2,3.8,2.3c1,0.6,1.6,1.7,1.6,2.9
					c0,2-1.6,3.7-3.6,3.8c-0.1,0-0.3,0-0.4,0c-1.4,0-4.2-0.5-4.2-1.4v-2.5c0-0.2,0.1-0.3,0.3-0.3h1.6c0.3,0,0.3,0.1,0.3,0.4v1.1
					C2.9,50.9,3.5,51,4.1,51c0.8,0,1.4-0.3,1.4-1.2c0-1.3-2.3-1.3-3.9-2.4c-0.9-0.6-1.4-1.6-1.4-2.7c0-2.1,1.7-3.8,3.8-3.8
					c0.1,0,0.2,0,0.3,0c1.2,0,3.3,0.3,3.3,1.1v2.4c0,0.3-0.1,0.3-0.3,0.3H5.8c-0.3,0-0.3-0.1-0.3-0.3L5.4,43.3z"/>
				<path fill="#B3282D" d="M22.3,52.6c0,0.3,0,0.3-0.3,0.3h-3.1c-0.6,0-0.6-0.6-0.8-1.1c-0.9,1-2.2,1.6-3.6,1.5
					c-2.5,0-3.1-1.7-3.1-3.7v-6.1h-1.2c-0.3,0-0.3-0.1-0.3-0.3v-1.5c0-0.3,0-0.3,0.3-0.3h3.9c0.3,0,0.3,0.1,0.3,0.3v7.2
					c0,0.9,0.1,2.1,1.3,2.1c0.8-0.1,1.5-0.4,2-1v-6.5h-1.2c-0.3,0-0.3-0.1-0.3-0.3v-1.5c0-0.3,0-0.3,0.3-0.3h3.9
					c0.3,0,0.3,0.1,0.3,0.3v7c0,0.7,0,1.4,0.3,2h1c0.3,0,0.3,0.1,0.3,0.3L22.3,52.6z"/>
				<path fill="#B3282D" d="M29.9,57.3c0,0.3-0.1,0.3-0.4,0.3h-5.4c-0.3,0-0.3,0-0.3-0.3v-1.5c0-0.2,0-0.3,0.3-0.3h1.2v-9.9
					c0-1.3,0-1.8-0.2-2H24c-0.3,0-0.3-0.1-0.3-0.3v-1.5c0-0.3,0.1-0.3,0.3-0.3h3.3c0.5,0,0.5,0.4,0.6,0.8c0.9-0.7,2-1.2,3.1-1.2
					c2.6,0,4.1,2,4.1,5.9c0,4.1-1.3,6.4-4.3,6.4c-0.9,0-1.7-0.2-2.5-0.6v2.7h1.2c0.3,0,0.4,0.1,0.4,0.3L29.9,57.3z M28.3,50.5
					c0.5,0.3,1.1,0.5,1.8,0.5c1.6,0,2.1-1.2,2.1-3.9c0-2.4-0.5-3.7-1.9-3.7c-0.7,0-1.4,0.3-1.9,0.9L28.3,50.5z"/>
				<path fill="#B3282D" d="M47,47.3c0-2.8-0.7-6.4-4.7-6.4c-3.2,0-5.2,2.6-5.2,6.3c0,4.3,2.2,6,5.3,6c1.8,0,4.2-0.8,4.2-1.4
					c0-0.1,0-0.2-0.1-0.3L46,50.3c0-0.1-0.1-0.2-0.3-0.2c-0.9,0.4-2,0.7-3,0.8c-2.2,0-2.6-1.6-2.6-2.9h6.3
					C46.9,47.9,47,47.8,47,47.3 M43.8,45.8h-3.8v-0.1c0.1-0.8,0.2-2.5,2-2.5S43.8,45,43.8,45.8z"/>
				<path fill="#B3282D" d="M124.8,47.3c0-2.8-0.7-6.4-4.7-6.4c-3.2,0-5.2,2.6-5.2,6.3c0,4.3,2.2,6,5.3,6c1.9,0,4.2-0.8,4.2-1.4
					c0-0.1,0-0.2-0.1-0.3l-0.6-1.4c0-0.1-0.1-0.2-0.3-0.2c-0.9,0.4-2,0.7-3,0.8c-2.2,0-2.6-1.6-2.6-2.9h6.3
					C124.7,47.9,124.8,47.8,124.8,47.3 M121.7,45.8h-3.8v-0.1c0.1-0.8,0.3-2.5,2-2.5S121.7,45,121.7,45.8L121.7,45.8z"/>
				<path fill="#B3282D" d="M55.5,52.6c0,0.3,0,0.3-0.3,0.3h-5.4c-0.3,0-0.3-0.1-0.3-0.3v-1.5c0-0.3,0-0.3,0.3-0.3H51v-5.2
					c0-0.7-0.1-1.3-0.2-2h-1.2c-0.3,0-0.3-0.1-0.3-0.3v-1.5c0-0.3,0.1-0.3,0.3-0.3h3.1c0.6,0,0.7,0.9,0.8,1.5c0.6-1,1.7-1.7,2.9-1.8
					c0.7,0,1.4,0.2,1.4,0.5c0,0.1,0,0.1,0,0.2l-0.8,2c0,0.1-0.1,0.2-0.2,0.2c-0.4-0.1-0.7-0.2-1.1-0.3c-0.7,0-1.5,0.8-1.8,1.1v5.9
					h1.3c0.3,0,0.3,0.1,0.3,0.3L55.5,52.6z"/>
				<path fill="#B3282D" d="M77.8,52.6c0,0.3,0,0.3-0.3,0.3h-3.9c-0.3,0-0.3-0.1-0.3-0.3v-7.2c0-0.9-0.1-1.9-1-1.9
					c-0.8,0.1-1.5,0.4-2,1v6.4h1.2c0.3,0,0.3,0.1,0.3,0.3v1.5c0,0.3,0,0.3-0.3,0.3h-3.9c-0.3,0-0.3-0.1-0.3-0.3v-7.2
					c0-0.9-0.1-1.9-1-1.9c-0.8,0.1-1.5,0.4-2,1v6.4h1.2c0.3,0,0.3,0.1,0.3,0.3v1.5c0,0.3,0,0.3-0.3,0.3H60c-0.3,0-0.3-0.1-0.3-0.3
					v-1.5c0-0.3,0-0.3,0.3-0.3h1.2v-5.2c0-0.7,0-1.4-0.3-2h-1.1c-0.3,0-0.3-0.1-0.3-0.3v-1.5c0-0.3,0-0.3,0.3-0.3h3.3
					c0.6,0,0.6,0.7,0.7,1.2c0.9-1,2.2-1.6,3.6-1.6c1.1,0,2,0.6,2.4,1.6c0.9-1,2.2-1.6,3.6-1.6c2.2,0,2.7,1.6,2.7,3.7v6.1h1.2
					c0.3,0,0.3,0.1,0.3,0.3L77.8,52.6z"/>
				<path fill="#B3282D" d="M89.6,50.8h-1c-0.2-0.6-0.3-1.3-0.2-2v-4c0-2.4-1.1-3.7-4.1-3.7c-1.8,0-4.1,0.6-4.1,1.1
					c0,0.1,0,0.2,0.1,0.3l0.5,1.4c0,0.1,0.1,0.2,0.2,0.3c0.9-0.4,1.9-0.6,2.9-0.7c1.5,0,1.7,0.7,1.7,1.7v0.7c-1.8,0-6.1,0-6.1,4
					c-0.2,1.8,1.2,3.4,3,3.6c0.2,0,0.4,0,0.5,0c1.2,0,2.3-0.5,3-1.4c0.1,0.4,0.2,1,0.7,1h2.9c0.3,0,0.3-0.1,0.3-0.3v-1.5
					C89.9,50.8,89.9,50.7,89.6,50.8 M85.6,50.3c-0.4,0.5-1.1,0.9-1.8,0.9c-0.8,0-1.5-0.6-1.6-1.5c0,0,0-0.1,0-0.1
					c0-1.3,1-1.9,2.9-1.9h0.4V50.3z"/>
				<path fill="#B3282D" d="M97.9,52.6c0,0.3,0,0.3-0.3,0.3h-5.5c-0.3,0-0.3-0.1-0.3-0.3v-1.5c0-0.3,0-0.3,0.3-0.3h1.2v-5.2
					c0-0.7-0.1-1.3-0.2-2H92c-0.3,0-0.3-0.1-0.3-0.3v-1.5c0-0.3,0-0.3,0.3-0.3h3.1c0.6,0,0.7,0.9,0.9,1.5c0.6-1,1.7-1.7,2.9-1.8
					c0.7,0,1.4,0.2,1.4,0.5c0,0.1,0,0.2-0.1,0.2l-0.7,2c0,0.1-0.1,0.2-0.2,0.2c-0.4-0.1-0.7-0.2-1.1-0.3c-0.8,0-1.5,0.8-1.8,1.1v5.9
					h1.3c0.3,0,0.3,0.1,0.3,0.3L97.9,52.6z"/>
				<path fill="#B3282D" d="M113.8,52.6c0,0.3,0,0.3-0.3,0.3h-2.9c-0.3,0-0.3,0-0.4-0.2l-4-5.5H106v3.6h1.2c0.3,0,0.3,0.1,0.3,0.3
					v1.5c0,0.3,0,0.3-0.3,0.3h-5.5c-0.3,0-0.3-0.1-0.3-0.3v-1.5c0-0.3,0.1-0.3,0.3-0.3h1.2V38.4h-1.2c-0.3,0-0.3-0.1-0.3-0.3v-1.5
					c0-0.3,0.1-0.3,0.3-0.3h3.8c0.3,0,0.3,0.1,0.3,0.3V46l3-2.4l0,0h-1c-0.3,0-0.3-0.1-0.3-0.3v-1.5c0-0.3,0.1-0.3,0.3-0.3h5.2
					c0.3,0,0.3,0.1,0.3,0.3v1.5c0,0.3,0,0.3-0.3,0.3h-1.2l-3.3,2.8l3.7,4.4h1.2c0.3,0,0.3,0.1,0.3,0.3L113.8,52.6z"/>
				<path fill="#B3282D" d="M131.3,49.2c0,0.7,0,1.4,0.8,1.4c0.6-0.1,1.3-0.2,1.9-0.5c0.1,0,0.2,0.1,0.2,0.1c0,0,0,0,0,0l0.5,1.9
					c0,0.1,0,0.1,0,0.2c0,0.4-1.7,0.8-3.3,0.8c-3,0-3-2.3-3-4.5v-5.2h-1.7c-0.3,0-0.3-0.1-0.3-0.3v-1.5c0-0.3,0-0.3,0.3-0.3h1.7v-3
					c0-0.3,0-0.4,0.4-0.4l2-0.3h0.3c0.2,0,0.2,0.1,0.2,0.4v3.3h2.7c0.2,0,0.4,0,0.4,0.2c0,0.1,0,0.1,0,0.2l-0.3,1.4
					c-0.1,0.3-0.2,0.3-0.4,0.3h-2.3L131.3,49.2z"/>
				<path fill="#B3282D" d="M141.8,43.3c-0.3,0-0.6-0.1-0.9-0.1c-0.9,0-1.5,0.3-1.5,1.2c0,1.3,2.1,1.2,3.8,2.3
					c1,0.6,1.6,1.7,1.6,2.8c0,2-1.6,3.7-3.6,3.8c-0.1,0-0.3,0-0.4,0c-1.4,0-4.2-0.6-4.2-1.3v-2.5c0-0.2,0.1-0.3,0.3-0.3h1.6
					c0.3,0,0.3,0.1,0.3,0.4v1.1c0.5,0.2,1.1,0.3,1.7,0.3c0.8,0,1.4-0.3,1.4-1.2c0-1.3-2.3-1.3-3.9-2.4c-0.9-0.6-1.5-1.6-1.4-2.7
					c0-2.1,1.7-3.8,3.8-3.8c0.1,0,0.2,0,0.3,0c1.2,0,3.3,0.3,3.3,1.1v2.4c0,0.3-0.1,0.3-0.3,0.3h-1.6c-0.3,0-0.4-0.1-0.4-0.3
					L141.8,43.3z"/>
				<path fill="#002E6D" d="M72.3,69.3h2.8v-1h-4.3v-2.1h4.3v-1.4h-4.3v-2.2h4.3v-1.4h-5.7v8.1L72.3,69.3"/>
				<path fill="#B3282D" d="M72.3,71.4c21.8,0,43.6,1.9,65,5.9c-14.3-4.1-38.1-7.7-65-7.7s-50.7,3.6-65,7.7
					C28.8,73.3,50.5,71.4,72.3,71.4"/>
			</g>
		</g>
	</g>
</g>
</svg>
